<svg xmlns="http://www.w3.org/2000/svg" width="24" height="24" viewBox="0 0 16 16" fill="none" role="img" aria-label="LogOut">
  <path d="M 4 12.8 C 4.442 12.8 4.8 12.442 4.8 12 C 4.8 11.558 4.442 11.2 4 11.2 L 4 12.8 Z M 0 10.667 L -0.8 10.667 L 0 10.667 Z M 1.333 0 L 1.333 -0.8 L 1.333 0 Z M 4 0.8 C 4.442 0.8 4.8 0.442 4.8 0 C 4.8 -0.442 4.442 -0.8 4 -0.8 L 4 0.8 Z M 8.101 8.768 C 7.789 9.08 7.789 9.587 8.101 9.899 C 8.413 10.211 8.92 10.211 9.232 9.899 L 8.101 8.768 Z M 12 6 L 12.566 6.566 C 12.878 6.253 12.878 5.747 12.566 5.434 L 12 6 Z M 9.232 2.101 C 8.92 1.789 8.413 1.789 8.101 2.101 C 7.789 2.413 7.789 2.92 8.101 3.232 L 9.232 2.101 Z M 4 5.2 C 3.558 5.2 3.2 5.558 3.2 6 C 3.2 6.442 3.558 6.8 4 6.8 L 4 5.2 Z M 4 11.2 L 1.333 11.2 L 1.333 12.8 L 4 12.8 L 4 11.2 Z M 1.333 11.2 C 1.192 11.2 1.056 11.144 0.956 11.044 L -0.175 12.175 C 0.225 12.575 0.768 12.8 1.333 12.8 L 1.333 11.2 Z M 0.956 11.044 C 0.856 10.944 0.8 10.808 0.8 10.667 L -0.8 10.667 C -0.8 11.232 -0.575 11.775 -0.175 12.175 L 0.956 11.044 Z M 0.8 10.667 L 0.8 1.333 L -0.8 1.333 L -0.8 10.667 L 0.8 10.667 Z M 0.8 1.333 C 0.8 1.192 0.856 1.056 0.956 0.956 L -0.175 -0.175 C -0.575 0.225 -0.8 0.768 -0.8 1.333 L 0.8 1.333 Z M 0.956 0.956 C 1.056 0.856 1.192 0.8 1.333 0.8 L 1.333 -0.8 C 0.768 -0.8 0.225 -0.575 -0.175 -0.175 L 0.956 0.956 Z M 1.333 0.8 L 4 0.8 L 4 -0.8 L 1.333 -0.8 L 1.333 0.8 Z M 9.232 9.899 L 12.566 6.566 L 11.434 5.434 L 8.101 8.768 L 9.232 9.899 Z M 12.566 5.434 L 9.232 2.101 L 8.101 3.232 L 11.434 6.566 L 12.566 5.434 Z M 12 5.2 L 4 5.2 L 4 6.8 L 12 6.8 L 12 5.2 Z" fill="currentColor" fill-rule="nonzero" transform="matrix(1 0 0 1 2 2)"></path>
</svg>