<svg xmlns="http://www.w3.org/2000/svg" viewBox="0 0 16 16" width="24" height="24" fill="none"><path d="M -0.8 2 C -0.8 2.442 -0.442 2.8 0 2.8 C 0.442 2.8 0.8 2.442 0.8 2 L -0.8 2 Z M 0 0 L 0 -0.8 C -0.442 -0.8 -0.8 -0.442 -0.8 0 L 0 0 Z M 10.667 0 L 11.467 0 C 11.467 -0.442 11.108 -0.8 10.667 -0.8 L 10.667 0 Z M 9.867 2 C 9.867 2.442 10.225 2.8 10.667 2.8 C 11.108 2.8 11.467 2.442 11.467 2 L 9.867 2 Z M 3.333 9.867 C 2.892 9.867 2.533 10.225 2.533 10.667 C 2.533 11.108 2.892 11.467 3.333 11.467 L 3.333 9.867 Z M 7.333 11.467 C 7.775 11.467 8.133 11.108 8.133 10.667 C 8.133 10.225 7.775 9.867 7.333 9.867 L 7.333 11.467 Z M 6.133 0 C 6.133 -0.442 5.775 -0.8 5.333 -0.8 C 4.892 -0.8 4.533 -0.442 4.533 0 L 6.133 0 Z M 4.533 10.667 C 4.533 11.108 4.892 11.467 5.333 11.467 C 5.775 11.467 6.133 11.108 6.133 10.667 L 4.533 10.667 Z M 0.8 2 L 0.8 0 L -0.8 0 L -0.8 2 L 0.8 2 Z M 0 0.8 L 10.667 0.8 L 10.667 -0.8 L 0 -0.8 L 0 0.8 Z M 9.867 0 L 9.867 2 L 11.467 2 L 11.467 0 L 9.867 0 Z M 3.333 11.467 L 7.333 11.467 L 7.333 9.867 L 3.333 9.867 L 3.333 11.467 Z M 4.533 0 L 4.533 10.667 L 6.133 10.667 L 6.133 0 L 4.533 0 Z" fill="currentColor" fill-rule="nonzero" transform="matrix(1 0 0 1 2.667 2.667)"></path></svg>